<svg width="103" height="23" viewBox="0 0 103 23" fill="none" xmlns="http://www.w3.org/2000/svg">
<path d="M7.84 0.999999C9.82 0.999999 11.47 1.66 12.79 2.98C14.13 4.3 14.8 5.94 14.8 7.9C14.8 9.84 14.13 11.48 12.79 12.82C11.47 14.14 9.82 14.8 7.84 14.8H3.55V22H0.1V0.999999H7.84ZM7.84 11.56C8.86 11.56 9.7 11.22 10.36 10.54C11.02 9.84 11.35 8.96 11.35 7.9C11.35 6.84 11.02 5.97 10.36 5.29C9.7 4.59 8.86 4.24 7.84 4.24H3.55V11.56H7.84ZM17.5853 22V0.0999994H20.8253V22H17.5853ZM36.4673 7H39.7073V22H36.4673V19.84C35.2473 21.54 33.4973 22.39 31.2173 22.39C29.1573 22.39 27.3973 21.63 25.9373 20.11C24.4773 18.57 23.7473 16.7 23.7473 14.5C23.7473 12.28 24.4773 10.41 25.9373 8.89C27.3973 7.37 29.1573 6.61 31.2173 6.61C33.4973 6.61 35.2473 7.45 36.4673 9.13V7ZM28.3373 17.95C29.2373 18.85 30.3673 19.3 31.7273 19.3C33.0873 19.3 34.2173 18.85 35.1173 17.95C36.0173 17.03 36.4673 15.88 36.4673 14.5C36.4673 13.12 36.0173 11.98 35.1173 11.08C34.2173 10.16 33.0873 9.7 31.7273 9.7C30.3673 9.7 29.2373 10.16 28.3373 11.08C27.4373 11.98 26.9873 13.12 26.9873 14.5C26.9873 15.88 27.4373 17.03 28.3373 17.95ZM51.3738 6.61C53.0938 6.61 54.4838 7.16 55.5438 8.26C56.6038 9.36 57.1338 10.87 57.1338 12.79V22H53.8938V13.12C53.8938 12 53.5938 11.14 52.9938 10.54C52.3938 9.94 51.5738 9.64 50.5338 9.64C49.3938 9.64 48.4738 10 47.7738 10.72C47.0738 11.42 46.7238 12.5 46.7238 13.96V22H43.4838V7H46.7238V8.92C47.7038 7.38 49.2538 6.61 51.3738 6.61ZM68.9924 10.12H65.2724V17.32C65.2724 17.94 65.4124 18.39 65.6924 18.67C65.9724 18.93 66.3824 19.08 66.9224 19.12C67.4824 19.14 68.1724 19.13 68.9924 19.09V22C66.5124 22.3 64.7324 22.09 63.6524 21.37C62.5724 20.63 62.0324 19.28 62.0324 17.32V10.12H59.2724V7H62.0324V3.76L65.2724 2.8V7H68.9924V10.12Z" fill="#49AC65"/>
<path d="M85.7575 20.41C84.2775 21.73 82.3675 22.39 80.0275 22.39C77.6875 22.39 75.7775 21.73 74.2975 20.41C72.8175 19.07 72.0775 17.28 72.0775 15.04V0.999999H75.5275V14.83C75.5275 16.11 75.8975 17.13 76.6375 17.89C77.3975 18.65 78.5275 19.03 80.0275 19.03C81.5275 19.03 82.6475 18.65 83.3875 17.89C84.1475 17.13 84.5275 16.11 84.5275 14.83V0.999999H87.9775V15.04C87.9775 17.28 87.2375 19.07 85.7575 20.41ZM94.4699 11.14C94.4699 11.64 94.7399 12.04 95.2799 12.34C95.8399 12.62 96.5099 12.87 97.2899 13.09C98.0899 13.29 98.8899 13.53 99.6899 13.81C100.49 14.09 101.16 14.57 101.7 15.25C102.26 15.91 102.54 16.75 102.54 17.77C102.54 19.21 101.98 20.34 100.86 21.16C99.7599 21.98 98.3699 22.39 96.6899 22.39C95.2099 22.39 93.9399 22.08 92.8799 21.46C91.8199 20.84 91.0499 19.98 90.5699 18.88L93.3599 17.26C93.8799 18.7 94.9899 19.42 96.6899 19.42C98.3899 19.42 99.2399 18.86 99.2399 17.74C99.2399 17.26 98.9599 16.87 98.3999 16.57C97.8599 16.27 97.1899 16.02 96.3899 15.82C95.6099 15.6 94.8199 15.35 94.0199 15.07C93.2199 14.79 92.5399 14.33 91.9799 13.69C91.4399 13.03 91.1699 12.2 91.1699 11.2C91.1699 9.82 91.6899 8.71 92.7299 7.87C93.7899 7.03 95.0999 6.61 96.6599 6.61C97.8999 6.61 98.9999 6.89 99.9599 7.45C100.94 7.99 101.69 8.75 102.21 9.73L99.4799 11.26C98.9599 10.12 98.0199 9.55 96.6599 9.55C96.0399 9.55 95.5199 9.69 95.0999 9.97C94.6799 10.23 94.4699 10.62 94.4699 11.14Z" fill="black"/>
</svg>
